<svg width="100" height="100" viewBox="0 0 130 130" fill="none" xmlns="http://www.w3.org/2000/svg"><path d="M65 18 C65 18, 80 40, 80 52 C80 62, 74 68, 65 68 C56 68, 50 62, 50 52 C50 40, 65 18, 65 18Z" fill="url(#dsFlame)"></path><path d="M65 36 C65 36, 72 46, 72 52 C72 57, 69 60, 65 60 C61 60, 58 57, 58 52 C58 46, 65 36, 65 36Z" fill="#fff" opacity="0.4"></path><path d="M20 80 C20 68, 30 62, 40 66 C44 68, 48 70, 52 72 C56 74, 60 78, 62 84 C64 90, 58 100, 48 104 C36 108, 20 100, 20 80Z" fill="url(#dsHandL)" opacity="0.85"></path><path d="M110 80 C110 68, 100 62, 90 66 C86 68, 82 70, 78 72 C74 74, 70 78, 68 84 C66 90, 72 100, 82 104 C94 108, 110 100, 110 80Z" fill="url(#dsHandR)" opacity="0.85"></path><ellipse cx="65" cy="82" rx="16" ry="10" fill="#FAEEDA" opacity="0.12"></ellipse><defs><linearGradient id="dsFlame" x1="65" y1="18" x2="65" y2="68" gradientUnits="userSpaceOnUse"><stop offset="0" stop-color="#FAEEDA"></stop><stop offset="0.5" stop-color="#EF9F27"></stop><stop offset="1" stop-color="#D85A30"></stop></linearGradient><linearGradient id="dsHandL" x1="20" y1="62" x2="62" y2="104" gradientUnits="userSpaceOnUse"><stop offset="0" stop-color="#AFA9EC"></stop><stop offset="1" stop-color="#7F77DD"></stop></linearGradient><linearGradient id="dsHandR" x1="110" y1="62" x2="68" y2="104" gradientUnits="userSpaceOnUse"><stop offset="0" stop-color="#AFA9EC"></stop><stop offset="1" stop-color="#7F77DD"></stop></linearGradient></defs></svg>
